<svg xmlns="http://www.w3.org/2000/svg" xmlns:xlink="http://www.w3.org/1999/xlink" viewBox="0 0 767.23 170.63"><defs><style>.cls-1{fill:none;}.cls-2{fill:#a400e8;}.cls-3{fill:#00ea11;}.cls-4{clip-path:url(#clip-path);}.cls-5{fill:#e7e9e9;}.cls-6{fill:#e7e8e8;}.cls-7{fill:#e6e8e8;}.cls-8{fill:#e6e8e7;}.cls-9{fill:#e6e7e7;}.cls-10{fill:#e5e6e6;}.cls-11{fill:#e5e5e5;}.cls-12{fill:#e4e5e4;}.cls-13{fill:#e4e4e4;}.cls-14{fill:#e3e4e3;}.cls-15{fill:#e3e3e3;}.cls-16{fill:#e3e3e2;}.cls-17{fill:#e2e3e2;}.cls-18{fill:#e2e2e2;}.cls-19{fill:#e1e1e1;}.cls-20{fill:#e0e0df;}.cls-21{fill:#dfdfde;}.cls-22{fill:#dededd;}.cls-23{fill:#dddcdc;}.cls-24{fill:#dcdbdb;}.cls-25{fill:#dbdbdb;}.cls-26{fill:#dadad9;}.cls-27{fill:#d9d9d8;}.cls-28{fill:#d8d8d8;}.cls-29{fill:#d7d7d6;}.cls-30{fill:#d6d7d6;}.cls-31{fill:#d5d6d6;}.cls-32{fill:#d5d5d5;}.cls-33{fill:#d4d4d4;}.cls-34{fill:#d3d3d3;}.cls-35{fill:#d2d2d2;}.cls-36{fill:#d1d1d2;}.cls-37{fill:#d0d0d0;}.cls-38{fill:#cfcfcf;}.cls-39{fill:#cecece;}.cls-40{fill:#cecdcd;}.cls-41{fill:#cdcccc;}.cls-42{fill:#cccccb;}.cls-43{fill:#cccbcb;}.cls-44{fill:#cbcaca;}.cls-45{fill:#cacac9;}.cls-46{fill:#c9c9c9;}.cls-47{fill:#c8c8c8;}.cls-48{fill:#c8c8c7;}.cls-49{fill:#c7c7c7;}.cls-50{fill:#c7c6c6;}.cls-51{fill:#c6c5c5;}.cls-52{fill:#c5c5c5;}.cls-53{fill:#c5c4c4;}.cls-54{fill:#c4c4c4;}.cls-55{fill:#c4c4c3;}.cls-56{fill:#c3c3c3;}.cls-57{fill:#c3c3c2;}.cls-58{fill:#c2c2c2;}.cls-59{fill:#c2c2c1;}.cls-60{fill:#c1c1c1;}.cls-61{fill:silver;}.cls-62{fill:#c0bfc0;}.cls-63{fill:#c0bfbf;}.cls-64{fill:#bfbebf;}.cls-65{fill:#bfbebe;}.cls-66{fill:#bebebe;}.cls-67{clip-path:url(#clip-path-2);}.cls-68{fill:#f0efef;}.cls-69{fill:#f0f0f0;}.cls-70{fill:#f1f0f0;}.cls-71{fill:#f1f1f1;}.cls-72{fill:#f2f2f2;}.cls-73{fill:#f2f2f3;}.cls-74{fill:#f3f3f3;}.cls-75{fill:#f3f4f4;}.cls-76{fill:#f4f4f4;}.cls-77{fill:#f5f5f5;}.cls-78{fill:#f5f6f6;}.cls-79{fill:#f6f6f6;}.cls-80{fill:#f6f7f8;}.cls-81{fill:#f7f8f8;}.cls-82{fill:#f7f9fa;}.cls-83{fill:#f8f9fa;}.cls-84{fill:#b2b3b3;}.cls-85{fill:#d33a39;}.cls-86{fill:#1e1e1e;}.cls-87{fill:#121212;}.cls-88{fill:#fff;}.cls-89{clip-path:url(#clip-path-3);}.cls-90{fill:#ebebeb;}.cls-91{fill:#eaebeb;}.cls-92{fill:#eaeaea;}.cls-93{fill:#e9eae9;}.cls-94{fill:#e9e9e9;}.cls-95{fill:#e9e9e8;}.cls-96{fill:#e8e9e8;}.cls-97{fill:#e8e8e8;}.cls-98{fill:#e8e8e7;}.cls-99{fill:#e7e8e7;}.cls-100{fill:#e7e7e6;}.cls-101{fill:#e6e6e6;}.cls-102{fill:#e1e2e1;}.cls-103{fill:#e1e1e0;}.cls-104{fill:#dddddc;}.cls-105{fill:#dcdcdc;}.cls-106{fill:#dadbda;}.cls-107{fill:#d9dad9;}.cls-108{fill:#d7d7d7;}.cls-109{fill:#d6d6d6;}.cls-110{fill:#d3d4d4;}.cls-111{fill:#d2d3d3;}.cls-112{fill:#d1d1d0;}.cls-113{fill:#cbcbca;}.cls-114{fill:#cacaca;}.cls-115{fill:#cac9c9;}.cls-116{fill:#c9c9c8;}.cls-117{fill:#c8c9c8;}.cls-118{clip-path:url(#clip-path-4);}.cls-119{fill:#414141;}.cls-120{fill:#262626;}</style><clipPath id="clip-path"><path class="cls-1" d="M417.67,128.29A10.74,10.74,0,0,1,412,126.6h0l-2.4-1.94-27.3-22.07c-3.28-3.06-5.36-5.72-6-8l-5.76-16c-.48-1.94-1-5.77,1.59-8.82l32.12-29.28a11,11,0,0,1,6.21-2,10.58,10.58,0,0,1,5.16,1.39l29.32,19.71L415.56,39.83a10.58,10.58,0,0,0-5.16-1.39,11,11,0,0,0-6.21,2L373.76,68.2c1,.3,2.18.63,3.54,1-1.4,1.91-1.95,4.56-.3,6.17l27.68,20.9a6.66,6.66,0,0,0,4.48,1.47,5.75,5.75,0,0,0,4-1.34l28.95-27c1.73-1.77,1.72-5.43.15-7.41,1.14-.57,2.28-1.16,3.43-1.79l.42.28c1.88,1.5,5.33,5.24,6.75,13.09L455,91.71a12.06,12.06,0,0,1-3.84,9.69l-26.06,23.77h0a10.77,10.77,0,0,1-7.41,3.12m27.21-68.75h0"/></clipPath><clipPath id="clip-path-2"><path class="cls-1" d="M409.16,97.7a6.66,6.66,0,0,1-4.48-1.47L377,75.33c-1.65-1.61-1.1-4.26.3-6.17,2.38.58,5.29,1.19,8.64,1.67a4.91,4.91,0,0,0,0,.55h0c.05,2.72,2.78,4.92,6.15,5h.07c3.25,0,5.91-2,6.15-4.61H400c1.29,0,2.6,0,3.94-.08a6.45,6.45,0,0,0,5.52,2.83h.07c3,0,5.49-1.72,6.05-4,2.3-.38,4.64-.85,7-1.44a6.65,6.65,0,0,0,5.2,2.36h.07c3.39,0,6.15-2.21,6.17-5a4.17,4.17,0,0,0-.1-.94c2.77-1.07,5.57-2.29,8.39-3.7,1.57,2,1.58,5.64-.15,7.41L413.2,96.36a5.75,5.75,0,0,1-4,1.34"/></clipPath><clipPath id="clip-path-3"><path class="cls-1" d="M377.3,69.16c-1.36-.33-2.55-.66-3.54-1l30.43-27.74a11,11,0,0,1,6.21-2,10.58,10.58,0,0,1,5.16,1.39l29.32,19.71.85.57c-1.15.63-2.29,1.22-3.43,1.79a3.8,3.8,0,0,0-.33-.37L414.05,42.77a5.64,5.64,0,0,0-3.89-1.31A6.22,6.22,0,0,0,405.83,43L378,68.37a8.47,8.47,0,0,0-.67.79"/></clipPath><clipPath id="clip-path-4"><path class="cls-1" d="M400,71.84h-1.7c0-.11,0-.23,0-.35,0-2.53-2.29-4.65-5.31-5h-.91c-3.16,0-5.77,1.92-6.13,4.41-3.35-.48-6.26-1.09-8.64-1.67a8.47,8.47,0,0,1,.67-.79L405.83,43a6.22,6.22,0,0,1,4.33-1.51,5.64,5.64,0,0,1,3.89,1.31L442,61.53a3.8,3.8,0,0,1,.33.37c-2.82,1.41-5.62,2.63-8.39,3.7a5.63,5.63,0,0,0-4.48-3.95h-.28a6.39,6.39,0,0,0-1-.11h-.38c-3.39,0-6.14,2.21-6.17,5h0v0h0a4.36,4.36,0,0,0,.95,2.56c-2.38.59-4.72,1.06-7,1.44a3.73,3.73,0,0,0,.12-.94c0-2.76-2.71-5-6.12-5.07h-.1c-3.39,0-6.15,2.21-6.17,5h0v0h0v0h0a4.16,4.16,0,0,0,.63,2.1c-1.34.06-2.65.08-3.94.08m4.09-17.08c0,2.73,2.76,5,6.15,5h.06c3.4,0,6.15-2.21,6.18-5,0-2.33-1.93-4.3-4.59-4.88h-.25a7.32,7.32,0,0,0-1.06-.11h-.33c-3.38,0-6.14,2.21-6.16,5h0"/></clipPath></defs><g id="Layer_2" data-name="Layer 2"><g id="Layer_1-2" data-name="Layer 1"><path class="cls-2" d="M50.59,15.35a125.39,125.39,0,0,1,17.87,2.74l17.77,4.2A86.14,86.14,0,0,1,97.17,33.23l10.94,12.2a37.18,37.18,0,0,1-6.74,13.77A57,57,0,0,1,87.7,67.41,51.68,51.68,0,0,1,73.93,59.2L61.62,49.63l-15,6.84a62.85,62.85,0,0,0-9.67,12.3L35.64,79.71l1.27,4.1V88l5.47,16.41,13.77,8.2a48.67,48.67,0,0,0,16.41-5.47L83.5,96.21a54.15,54.15,0,0,1,15.13,4,62.7,62.7,0,0,1,10.94,12.4,92.62,92.62,0,0,1-8.2,13.67L89,137.23l-13.67,8.2-15,1.37-4.1-1.37-5.56,1.37-13.68-2.73-15-6.84L2.73,111.16,0,92,1.37,72.87,0,61.94,1.37,59.2l1.36-4.1L9.57,40,20.51,29l13.67-8.21ZM15,72.87,13.67,77h2.74V72.87Zm1.37,8.21a9.88,9.88,0,0,0,5.47,2.73Zm2.73,8.2-1.37,5.47h2.74V89.28Zm2.74-39.65L19.14,59.2c0,1.44.91,2.35,2.74,2.74A36.3,36.3,0,0,0,26,52.37,6.11,6.11,0,0,0,21.88,49.63Zm0,50.59a15.15,15.15,0,0,0,5.56,8.2Q27.16,103.35,21.88,100.22Zm15,20.6a25.33,25.33,0,0,0-8.2,5.47A23.75,23.75,0,0,0,36.91,120.82ZM49.32,26.29l-4.2,4.2Q49,30,49.32,26.29ZM46.58,40a4.66,4.66,0,0,0,2.74,4.2Zm4,83.6v2.73l2.73-1.36Zm26.07-4.1-12.3,6.83a11.67,11.67,0,0,0,5.46,4.1,32,32,0,0,1,10.94-5.46A7.19,7.19,0,0,0,76.66,119.46Zm-8.2-85A9.16,9.16,0,0,0,71.19,40l1.37-5.46ZM79.39,36l-2.73,8.2L82.23,40Z"/><path class="cls-2" d="M135.45,15l22.66,2.84,22.65-1.47,18.36,1.47L213.38,15l4.2,2.84a97,97,0,0,1,4.2,19.82q-1.38,7.82-9.87,12.79L168,49.05l-5.57,4.2,4.2,11.32,21.19-2.83,5.76,1.37,15.53-1.37q8.11,1.95,11.33,11.33a57,57,0,0,1-5.66,19.82l-19.83,1.47-22.65-1.47q-7.53,2.35-11.43,11.33a38.55,38.55,0,0,0,15.62,8.5A96.54,96.54,0,0,1,199.12,110h14.26l2.83-1.46,1.37,1.46h4.2q5.66,5.67,5.76,15.53V138.3l-5.76,7L173.73,144l-4.3,2.73-12.79-1.36a45.6,45.6,0,0,0-14.16,4.29,74.46,74.46,0,0,1-15.62-10V90.06l-1.37-5.66,2.83-14.16-2.83-14.16,2.83-4.3-1.46-11.33,1.46-2.83v-8.5A43.31,43.31,0,0,1,135.45,15Zm4.2,49.61,1.46,7.13,1.37,2.74L144,64.57c-.2-1.23-1.14-2.18-2.84-2.83Zm0,25.49a18.14,18.14,0,0,0,5.66,8.6A15.23,15.23,0,0,0,139.65,90.06Zm1.46-43.94A6.42,6.42,0,0,0,144,50.41Zm0,62.4,4.2,2.83A6.34,6.34,0,0,0,141.11,108.52ZM144,40.45V37.62h-1.47Zm4.19,75.1q.2,10.07,10,14.26A31,31,0,0,0,148.14,115.55Zm4.3-41.11a6.41,6.41,0,0,0,2.83,4.29Zm10,2.83L158.11,83l8.49-1.46Zm19.83,44-1.47,7,4.3-1.36A8.82,8.82,0,0,0,182.23,121.31Z"/><path class="cls-2" d="M254.2,15l22.66,2.84,22.65-1.47,18.36,1.47L332.13,15l4.2,2.84a97,97,0,0,1,4.2,19.82q-1.38,7.82-9.87,12.79l-43.94-1.36-5.57,4.2,4.2,11.32,21.19-2.83,5.76,1.37,15.53-1.37q8.12,1.95,11.33,11.33a57,57,0,0,1-5.66,19.82l-19.83,1.47L291,92.89q-7.53,2.35-11.43,11.33a38.55,38.55,0,0,0,15.62,8.5A96.54,96.54,0,0,1,317.87,110h14.26l2.83-1.46,1.37,1.46h4.2q5.66,5.67,5.76,15.53V138.3l-5.76,7-48-1.37-4.3,2.73-12.79-1.36a45.6,45.6,0,0,0-14.16,4.29,74.46,74.46,0,0,1-15.62-10V90.06l-1.37-5.66,2.83-14.16-2.83-14.16,2.83-4.3-1.46-11.33,1.46-2.83v-8.5A43.31,43.31,0,0,1,254.2,15Zm4.2,49.61,1.46,7.13,1.37,2.74,1.47-9.87c-.2-1.23-1.14-2.18-2.84-2.83Zm0,25.49a18.14,18.14,0,0,0,5.66,8.6A15.23,15.23,0,0,0,258.4,90.06Zm1.46-43.94a6.42,6.42,0,0,0,2.84,4.29Zm0,62.4,4.2,2.83A6.34,6.34,0,0,0,259.86,108.52Zm2.84-68.07V37.62h-1.47Zm4.19,75.1q.19,10.07,10,14.26A31,31,0,0,0,266.89,115.55Zm4.3-41.11A6.41,6.41,0,0,0,274,78.73Zm10,2.83L276.86,83l8.49-1.46Zm19.83,44-1.47,7,4.3-1.36A8.82,8.82,0,0,0,301,121.31Z"/><path class="cls-2" d="M487.89,14.87q12.21.39,25.59,7.13l1.36,12.69-1.36,14.16,1.36,11.33-1.36,4.2V70l-2.93,4.3,2.93,24.12L512,109.79l14.16,1.37,14.16-4.3,10,2.93q7.82,5.76,9.87,16.89a28.19,28.19,0,0,0,2.83,8.6l-8.5,11.23L530.37,148l-4.2-2.93L482.32,148,478,142.31l-4.3-12.79,1.47-12.7V98.46l1.36-4.3L475.2,88.5V34.69l-2.84-4.3Q477.06,20.54,487.89,14.87ZM485.06,88.5a51,51,0,0,0,10,10A26,26,0,0,0,485.06,88.5Zm4.3-52.44-1.47,5.66,4.3-2.83C492,37.65,491.05,36.71,489.36,36.06Zm4.29,10,2.74,4.2A5.46,5.46,0,0,0,493.65,46Zm4.2,82.13a7.36,7.36,0,0,0,4.3,4.29A7,7,0,0,0,497.85,128.15Zm35.35-2.83a16.26,16.26,0,0,0,8.5,4.2Z"/><path class="cls-2" d="M624.61,15.75a201.33,201.33,0,0,1,29.88,4,91.66,91.66,0,0,1,23,9.47l16.21,16.31a148.71,148.71,0,0,0,6.84,25.78l-2.74,28.42q-1.85,11-10.74,21.58A69.79,69.79,0,0,1,672.07,139,187.91,187.91,0,0,1,649,148.46l-29.78-1.37A99,99,0,0,1,598.93,135,87.34,87.34,0,0,1,584,117.31a107.88,107.88,0,0,1-6.73-23l-1.37-13.67,2.73-13.48a104.64,104.64,0,0,1,9.48-23A146.22,146.22,0,0,1,604.3,28,96.76,96.76,0,0,1,624.61,15.75Zm-33.79,69a9.74,9.74,0,0,0,6.74,6.83A13.5,13.5,0,0,0,590.82,84.79Zm5.37-14.94,1.37,5.47A6.07,6.07,0,0,0,594.82,78c.13,1.31,1,2.22,2.74,2.74l1.37-8.11C598.73,71.41,597.82,70.5,596.19,69.85ZM600.29,55l-1.36,4.1,2.63-1.46V55Zm4,47.46a26.38,26.38,0,0,1-5.37,5.38l2.63,4.1,6.84-5.47A7.53,7.53,0,0,0,604.3,102.46Zm4.1-62.4,1.27,6.84,1.46-2.74Zm1.27,9.47L608.4,55l4-2.73C612.14,51.42,611.23,50.51,609.67,49.53ZM635.45,51a79.67,79.67,0,0,0-16.21,12.11L612.4,83.42l8.21,20.31a68.61,68.61,0,0,0,18.94,8.21,168.9,168.9,0,0,0,17.58-9.48l4.1-17.67-1.37-4.1a122.86,122.86,0,0,0-5.37-21.59A109.12,109.12,0,0,0,635.45,51Zm-13.57,70.31-5.38,6.84,9.48,2.73A19.4,19.4,0,0,0,621.88,121.31Zm0-86.62a35.63,35.63,0,0,0,8.1,9.47Q629.59,37,621.88,34.69Zm12.2-9.47-1.37,4h2.74v-4ZM644.92,120l5.47,6.74A10,10,0,0,0,644.92,120Zm6.84-84V33.32h-1.37Zm0,89.35a6,6,0,0,0,2.73,4.11ZM662.6,49.53a4.09,4.09,0,0,0,4.1,2.74Zm9.47,61A25.54,25.54,0,0,0,664,122.78,15,15,0,0,0,672.07,110.57ZM668,44.16l-2.74,4.11h4.11V44.16Zm2.73-5.37,1.37,4v-4Zm5.37,21.58-5.37,8.21a6.77,6.77,0,0,0,4.1,4,30.71,30.71,0,0,0,5.38-8.1Zm5.47,25.79a4.06,4.06,0,0,0,2.74,2.73A3.82,3.82,0,0,0,681.54,86.16Zm1.37,12.2A5.45,5.45,0,0,0,687,101Z"/><path class="cls-2" d="M744.53,8.52q8.6,7.9,11.23,22.07l-1.37,25.29,1.37,6.35L749.51,86l-5.37,17.68a29,29,0,0,0-15.72-1L723.73,91l-4.39-13.28,2.83-26.57-2.83-4.78V41.72L716.5,17.89Zm-4.2,105.57a44.74,44.74,0,0,1,15.43,7.51L757.23,138a30.07,30.07,0,0,1-8.5,11.23l-15.33,6.35a75.81,75.81,0,0,1-15.53-5.08l-1.37-5,1.37-12.5a109.56,109.56,0,0,1,2.83-16.41Zm-5.56-78.72A6.79,6.79,0,0,0,739,38.6,6.38,6.38,0,0,0,734.77,35.37Zm2.73,26.86V59.1h-1.27Z"/><path class="cls-3" d="M54.59,5.39A123.67,123.67,0,0,1,72.46,8.12l17.77,4.2a86.8,86.8,0,0,1,10.94,10.94l10.94,12.21a37.18,37.18,0,0,1-6.74,13.77,57,57,0,0,1-13.67,8.2,51.37,51.37,0,0,1-13.77-8.2L65.62,39.67l-15,6.83a62.5,62.5,0,0,0-9.66,12.31L39.65,69.75l1.27,4.1v4.2l5.46,16.4,13.77,8.21a48.89,48.89,0,0,0,16.41-5.47L87.5,86.25a54.12,54.12,0,0,1,15.13,4,62.45,62.45,0,0,1,10.94,12.41,92.62,92.62,0,0,1-8.2,13.67L93,127.27l-13.68,8.2-15,1.37-4.11-1.37-5.56,1.37L40.92,134.1l-15-6.83L6.74,101.19,4,82.05,5.37,62.91,4,52l1.37-2.73,1.37-4.1L13.57,30,24.51,19.06l13.67-8.2ZM19,62.91,17.67,67h2.74v-4.1Zm1.37,8.2a10,10,0,0,0,5.47,2.74Zm2.73,8.21-1.36,5.47h2.73V79.32Zm2.74-39.65-2.74,9.57c0,1.43.91,2.34,2.74,2.73A36,36,0,0,0,30,42.4,6.13,6.13,0,0,0,25.88,39.67Zm0,50.58a15.17,15.17,0,0,0,5.56,8.21Q31.16,93.38,25.88,90.25Zm15,20.61a25.05,25.05,0,0,0-8.21,5.47A23.93,23.93,0,0,0,40.92,110.86Zm12.4-94.53-4.2,4.2Q53,20,53.32,16.33ZM50.58,30a4.66,4.66,0,0,0,2.74,4.2Zm4,83.59v2.74L57.32,115Zm26.07-4.1-12.3,6.84a11.71,11.71,0,0,0,5.47,4.1A32,32,0,0,1,84.76,115,7.2,7.2,0,0,0,80.66,109.49Zm-8.2-85A9.16,9.16,0,0,0,75.19,30l1.37-5.47ZM83.4,26l-2.74,8.2L86.23,30Z"/><path class="cls-3" d="M129.45,27l22.66,2.83,22.65-1.46,18.36,1.46L207.38,27l4.2,2.83a96.91,96.91,0,0,1,4.2,19.83q-1.36,7.81-9.86,12.79L162,61.08l-5.57,4.2,4.2,11.33,21.19-2.83,5.77,1.36,15.52-1.36q8.11,1.95,11.33,11.33a57,57,0,0,1-5.66,19.82l-19.83,1.46-22.65-1.46q-7.53,2.34-11.43,11.33a38.57,38.57,0,0,0,15.63,8.49A96.48,96.48,0,0,1,193.12,122h14.26l2.83-1.47,1.37,1.47h4.2q5.66,5.67,5.76,15.53v12.79l-5.76,7L167.73,156l-4.29,2.74-12.8-1.37a46,46,0,0,0-14.16,4.3,74.72,74.72,0,0,1-15.62-10V102.1l-1.37-5.67,2.83-14.16-2.83-14.16,2.83-4.29-1.46-11.33,1.46-2.83v-8.5A43.31,43.31,0,0,1,129.45,27Zm4.2,49.61,1.47,7.13,1.36,2.73L138,76.61c-.2-1.24-1.14-2.18-2.83-2.83Zm0,25.49a18.11,18.11,0,0,0,5.66,8.59A15.21,15.21,0,0,0,133.65,102.1Zm1.47-43.95a6.45,6.45,0,0,0,2.83,4.3Zm0,62.4,4.19,2.84A6.39,6.39,0,0,0,135.12,120.55ZM138,52.49V49.66h-1.47Zm4.2,75.1q.19,10,10,14.25A31.1,31.1,0,0,0,142.15,127.59Zm4.29-41.12a6.47,6.47,0,0,0,2.84,4.3Zm10,2.83-4.29,5.77,8.49-1.47Zm19.83,44.05-1.47,7,4.3-1.37A8.75,8.75,0,0,0,176.23,133.35Z"/><path class="cls-3" d="M263.2,0l22.66,2.83,22.65-1.46,18.36,1.46L341.13,0l4.2,2.83a96.91,96.91,0,0,1,4.2,19.83q-1.36,7.82-9.86,12.79l-43.95-1.37-5.57,4.2,4.2,11.33,21.19-2.83,5.77,1.36,15.52-1.36q8.12,1.95,11.33,11.33a57,57,0,0,1-5.66,19.82l-19.83,1.46L300,77.93q-7.53,2.34-11.43,11.33a38.57,38.57,0,0,0,15.63,8.49A96.48,96.48,0,0,1,326.87,95h14.26L344,93.55,345.33,95h4.2q5.66,5.67,5.76,15.53v12.79l-5.76,7-48-1.37-4.29,2.74-12.8-1.37a46,46,0,0,0-14.16,4.3,74.72,74.72,0,0,1-15.62-10V75.1l-1.37-5.67,2.83-14.16-2.83-14.16,2.83-4.29-1.46-11.33,1.46-2.83v-8.5A43.31,43.31,0,0,1,263.2,0Zm4.2,49.61,1.47,7.13,1.36,2.73,1.47-9.86c-.2-1.24-1.14-2.18-2.83-2.83Zm0,25.49a18.11,18.11,0,0,0,5.66,8.59A15.21,15.21,0,0,0,267.4,75.1Zm1.47-43.95a6.45,6.45,0,0,0,2.83,4.3Zm0,62.4,4.19,2.84A6.39,6.39,0,0,0,268.87,93.55Zm2.83-68.06V22.66h-1.47Zm4.2,75.1q.19,10.05,10,14.25A31.1,31.1,0,0,0,275.9,100.59Zm4.29-41.12a6.47,6.47,0,0,0,2.84,4.3Zm10,2.83-4.29,5.77,8.49-1.47ZM310,106.35l-1.47,7,4.3-1.37A8.75,8.75,0,0,0,310,106.35Z"/><path class="cls-3" d="M503.89,29.9q12.21.39,25.59,7.13l1.37,12.7-1.37,14.16,1.37,11.32-1.37,4.2v5.67l-2.93,4.3,2.93,24.12L528,124.82l14.16,1.37,14.16-4.3,10,2.93q7.82,5.77,9.87,16.9a28.14,28.14,0,0,0,2.83,8.59l-8.5,11.23L546.37,163l-4.2-2.93L498.33,163l-4.3-5.67-4.3-12.79,1.47-12.69V113.5l1.36-4.3-1.36-5.66V49.73l-2.83-4.3Q493.05,35.56,503.89,29.9Zm-2.83,73.64a51.55,51.55,0,0,0,10,10A26,26,0,0,0,501.06,103.54Zm4.3-52.45-1.47,5.67,4.3-2.83C508,52.69,507.05,51.75,505.36,51.09Zm4.29,10,2.74,4.2A5.47,5.47,0,0,0,509.65,61.05Zm4.2,82.13a7.35,7.35,0,0,0,4.3,4.3A7,7,0,0,0,513.85,143.18Zm35.36-2.83a16.12,16.12,0,0,0,8.49,4.2Z"/><path class="cls-3" d="M619.61,3.78a201.43,201.43,0,0,1,29.88,4,91.66,91.66,0,0,1,23,9.47l16.21,16.31a149.86,149.86,0,0,0,6.84,25.78l-2.73,28.42q-1.86,11-10.75,21.58A69.59,69.59,0,0,1,667.07,127a189.92,189.92,0,0,1-23,9.48l-29.79-1.37A99.47,99.47,0,0,1,593.93,123,87.36,87.36,0,0,1,579,105.34a107.53,107.53,0,0,1-6.74-23l-1.37-13.67,2.74-13.47a104.58,104.58,0,0,1,9.47-23A145.37,145.37,0,0,1,599.3,16,96.33,96.33,0,0,1,619.61,3.78Zm-33.79,69a9.77,9.77,0,0,0,6.74,6.84A13.55,13.55,0,0,0,585.82,72.82Zm5.37-14.94,1.37,5.47A6.1,6.1,0,0,0,589.83,66q.2,2,2.73,2.73l1.37-8.1C593.73,59.45,592.82,58.53,591.19,57.88ZM595.29,43l-1.36,4.1,2.63-1.46V43Zm4,47.46a26.11,26.11,0,0,1-5.37,5.37l2.63,4.1,6.84-5.47A7.52,7.52,0,0,0,599.3,90.5Zm4.1-62.4,1.27,6.83,1.46-2.73Zm1.27,9.47L603.4,43l4-2.74Q607,39,604.67,37.57ZM630.45,39a79.6,79.6,0,0,0-16.21,12.1L607.4,71.46l8.21,20.31a68.44,68.44,0,0,0,18.94,8.2,166.74,166.74,0,0,0,17.58-9.47l4.1-17.68-1.36-4.1a123.71,123.71,0,0,0-5.38-21.58A108.36,108.36,0,0,0,630.45,39Zm-13.57,70.31-5.37,6.83,9.47,2.74A19.4,19.4,0,0,0,616.88,109.35Zm0-86.62A35.81,35.81,0,0,0,625,32.2Q624.59,25.07,616.88,22.73Zm12.2-9.48-1.36,4h2.73v-4Zm10.84,94.83,5.47,6.74A10,10,0,0,0,639.92,108.08Zm6.84-84V21.36h-1.37Zm0,89.36a6,6,0,0,0,2.73,4.1ZM657.6,37.57a4.07,4.07,0,0,0,4.1,2.73Zm9.47,61a25.46,25.46,0,0,0-8.1,12.2A15,15,0,0,0,667.07,98.61ZM663,32.2l-2.73,4.1h4.1V32.2Zm2.74-5.37,1.36,4v-4Zm5.37,21.58-5.37,8.2a6.73,6.73,0,0,0,4.1,4,30.85,30.85,0,0,0,5.37-8.11Zm5.46,25.78a4.09,4.09,0,0,0,2.74,2.74A3.85,3.85,0,0,0,676.54,74.19Zm1.37,12.21A5.45,5.45,0,0,0,682,89Z"/><path class="cls-3" d="M754.53,23.55q8.6,7.92,11.23,22.07l-1.36,25.3,1.36,6.35L759.51,101l-5.37,17.67a29,29,0,0,0-15.72-1l-4.69-11.63-4.39-13.28,2.83-26.56-2.83-4.78V56.76l-2.83-23.83Zm-4.2,105.57a44.68,44.68,0,0,1,15.43,7.52l1.47,16.41a30.15,30.15,0,0,1-8.5,11.23l-15.33,6.34a76,76,0,0,1-15.53-5.07l-1.36-5,1.36-12.5a108.17,108.17,0,0,1,2.84-16.41Zm-5.56-78.71a6.77,6.77,0,0,0,4.2,3.22A6.39,6.39,0,0,0,744.77,50.41Zm2.73,26.86V74.14h-1.27Z"/></g><g id="Layer_2-2" data-name="Layer 2"><g class="cls-4"><rect class="cls-5" x="369.53" y="38.44" width="1.9" height="89.85"/><rect class="cls-6" x="371.43" y="38.44" width="3.32" height="89.85"/><rect class="cls-7" x="374.75" y="38.44" width="0.66" height="89.85"/><rect class="cls-8" x="375.41" y="38.44" width="1" height="89.85"/><rect class="cls-9" x="376.4" y="38.44" width="4.98" height="89.85"/><rect class="cls-10" x="381.38" y="38.44" width="4.98" height="89.85"/><rect class="cls-11" x="386.36" y="38.44" width="1.66" height="89.85"/><rect class="cls-12" x="388.01" y="38.44" width="3.65" height="89.85"/><rect class="cls-13" x="391.66" y="38.44" width="2.32" height="89.85"/><rect class="cls-14" x="393.98" y="38.44" width="2.65" height="89.85"/><rect class="cls-15" x="396.64" y="38.44" width="3.65" height="89.85"/><rect class="cls-16" x="400.29" y="38.44" width="1" height="89.85"/><rect class="cls-17" x="401.28" y="38.44" width="0.33" height="89.85"/><rect class="cls-18" x="401.61" y="38.44" width="0.66" height="89.85"/><rect class="cls-19" x="402.28" y="38.44" width="0.66" height="89.85"/><rect class="cls-20" x="402.94" y="38.44" width="1" height="89.85"/><rect class="cls-21" x="403.94" y="38.44" width="0.66" height="89.85"/><rect class="cls-22" x="404.6" y="38.44" width="1" height="89.85"/><rect class="cls-23" x="405.59" y="38.44" width="1" height="89.85"/><rect class="cls-24" x="406.59" y="38.44" width="0.33" height="89.85"/><rect class="cls-25" x="406.92" y="38.44" width="0.33" height="89.85"/><rect class="cls-26" x="407.25" y="38.44" width="1" height="89.85"/><rect class="cls-27" x="408.25" y="38.44" width="0.66" height="89.85"/><rect class="cls-28" x="408.91" y="38.44" width="1" height="89.85"/><rect class="cls-29" x="409.91" y="38.44" width="0.33" height="89.85"/><rect class="cls-30" x="410.24" y="38.44" width="0.33" height="89.85"/><rect class="cls-31" x="410.57" y="38.44" width="1" height="89.85"/><rect class="cls-32" x="411.57" y="38.44" width="0.66" height="89.85"/><rect class="cls-33" x="412.23" y="38.44" width="1" height="89.85"/><rect class="cls-34" x="413.22" y="38.44" width="0.66" height="89.85"/><rect class="cls-35" x="413.89" y="38.44" width="1" height="89.85"/><rect class="cls-36" x="414.88" y="38.44" width="0.66" height="89.85"/><rect class="cls-37" x="415.55" y="38.44" width="1" height="89.85"/><rect class="cls-38" x="416.54" y="38.44" width="0.66" height="89.85"/><rect class="cls-39" x="417.2" y="38.44" width="1" height="89.85"/><rect class="cls-40" x="418.2" y="38.44" width="1" height="89.85"/><rect class="cls-41" x="419.19" y="38.44" width="0.66" height="89.85"/><rect class="cls-42" x="419.86" y="38.44" width="1" height="89.85"/><rect class="cls-43" x="420.85" y="38.44" width="0.66" height="89.85"/><rect class="cls-44" x="421.52" y="38.44" width="1" height="89.85"/><rect class="cls-45" x="422.51" y="38.44" width="0.66" height="89.85"/><rect class="cls-46" x="423.17" y="38.44" width="1" height="89.85"/><rect class="cls-47" x="424.17" y="38.44" width="0.66" height="89.85"/><rect class="cls-48" x="424.83" y="38.44" width="1" height="89.85"/><rect class="cls-49" x="425.83" y="38.44" width="0.66" height="89.85"/><rect class="cls-50" x="426.49" y="38.44" width="1.66" height="89.85"/><rect class="cls-51" x="428.15" y="38.44" width="1" height="89.85"/><rect class="cls-52" x="429.15" y="38.44" width="0.66" height="89.85"/><rect class="cls-53" x="429.81" y="38.44" width="1" height="89.85"/><rect class="cls-54" x="430.8" y="38.44" width="1" height="89.85"/><rect class="cls-55" x="431.8" y="38.44" width="0.66" height="89.85"/><rect class="cls-56" x="432.46" y="38.44" width="1" height="89.85"/><rect class="cls-57" x="433.46" y="38.44" width="0.66" height="89.85"/><rect class="cls-58" x="434.12" y="38.44" width="1.66" height="89.85"/><rect class="cls-59" x="435.78" y="38.44" width="1" height="89.85"/><rect class="cls-60" x="436.77" y="38.44" width="1.66" height="89.85"/><rect class="cls-61" x="438.43" y="38.44" width="0.66" height="89.85"/><rect class="cls-61" x="439.1" y="38.44" width="1.66" height="89.85"/><rect class="cls-62" x="440.75" y="38.44" width="1" height="89.85"/><rect class="cls-63" x="441.75" y="38.44" width="1.66" height="89.85"/><rect class="cls-63" x="443.41" y="38.44" width="1" height="89.85"/><rect class="cls-64" x="444.4" y="38.44" width="3.32" height="89.85"/><rect class="cls-65" x="447.72" y="38.44" width="3.32" height="89.85"/><rect class="cls-66" x="451.04" y="38.44" width="0.66" height="89.85"/><rect class="cls-66" x="451.7" y="38.44" width="3.89" height="89.85"/></g><g class="cls-67"><rect class="cls-68" x="375.35" y="61.9" width="1.95" height="35.8"/><rect class="cls-69" x="377.3" y="61.9" width="5.27" height="35.8"/><rect class="cls-70" x="382.57" y="61.9" width="4.22" height="35.8"/><rect class="cls-71" x="386.79" y="61.9" width="2.11" height="35.8"/><rect class="cls-72" x="388.9" y="61.9" width="6.59" height="35.8"/><rect class="cls-73" x="395.49" y="61.9" width="1.05" height="35.8"/><rect class="cls-74" x="396.55" y="61.9" width="8.44" height="35.8"/><rect class="cls-75" x="404.98" y="61.9" width="1.05" height="35.8"/><rect class="cls-76" x="406.03" y="61.9" width="9.75" height="35.8"/><rect class="cls-77" x="415.79" y="61.9" width="1.05" height="35.8"/><rect class="cls-78" x="416.84" y="61.9" width="7.38" height="35.8"/><rect class="cls-79" x="424.22" y="61.9" width="3.43" height="35.8"/><rect class="cls-80" x="427.65" y="61.9" width="5.27" height="35.8"/><rect class="cls-81" x="432.92" y="61.9" width="7.38" height="35.8"/><rect class="cls-82" x="440.3" y="61.9" width="2.11" height="35.8"/><rect class="cls-83" x="442.41" y="61.9" width="1.47" height="35.8"/></g><path class="cls-84" d="M452.84,94.08l-.07-.48-2.56-19.41c-.75-4.6-3.61-2.55-4.32-2L417.12,98.92l-.33.3c-1.05,1-4.21,4.62-2.7,9.09l4.37,12.89c.51,1,2.77,4.49,6.85,1.28l23.21-21c4-3.63,4.36-6.32,4.32-7.37Z"/><rect class="cls-85" x="425.08" y="125.17" transform="translate(84.61 408.79) rotate(-56.2)"/><path class="cls-84" d="M410.59,120.27l-2-6.43c-2.77-8.5-7.11-13.35-9.77-15.68L374.62,79.94c-1-.62-1.12,0-1,.68l5,13.9c.64,2.32,2.73,5,6,8l23.75,19.2c.84.45,2.69,1.19,2.19-1.49Z"/><path class="cls-86" d="M434,66.54c0,2.77-2.81,5-6.24,5s-6.17-2.3-6.15-5.06,2.82-5,6.24-5S434,63.77,434,66.54"/><path class="cls-86" d="M415.67,69.64c0,2.76-2.82,5-6.24,5s-6.17-2.29-6.15-5.06,2.82-5,6.24-5,6.17,2.3,6.15,5.07"/><path class="cls-86" d="M416.45,54.78c0,2.77-2.82,5-6.24,5s-6.18-2.3-6.15-5.06,2.81-5,6.23-5,6.18,2.29,6.16,5.06"/><path class="cls-86" d="M415.29,84.43c0,2.76-2.81,5-6.23,4.95s-6.18-2.29-6.16-5.06,2.82-5,6.24-5,6.18,2.3,6.15,5.07Z"/><path class="cls-86" d="M398.29,71.48c0,2.77-2.82,5-6.24,5s-6.17-2.29-6.15-5.06,2.82-5,6.24-5,6.17,2.3,6.15,5.06"/><path d="M428.15,62.18a6.37,6.37,0,0,1,5.66,3.06c-.69-2.14-3.08-3.74-5.95-3.76-3.42,0-6.21,2.19-6.24,5a4.21,4.21,0,0,0,.5,2,3.8,3.8,0,0,1-.2-1.3c0-2.77,2.81-5,6.23-5"/><path d="M409.81,65.27a6.4,6.4,0,0,1,5.66,3.07c-.69-2.15-3.09-3.74-6-3.77-3.42,0-6.22,2.19-6.24,5a4.17,4.17,0,0,0,.49,2,4.05,4.05,0,0,1-.19-1.3c0-2.76,2.81-5,6.23-5"/><path d="M410.59,50.42a6.39,6.39,0,0,1,5.66,3.06c-.69-2.14-3.09-3.74-6-3.76-3.42,0-6.21,2.19-6.23,5a4.2,4.2,0,0,0,.49,2,4.36,4.36,0,0,1-.2-1.3c0-2.77,2.82-5,6.24-5"/><path d="M409.44,80.06a6.34,6.34,0,0,1,5.65,3.07c-.68-2.15-3.08-3.74-5.95-3.77-3.42,0-6.21,2.19-6.24,5a4.18,4.18,0,0,0,.5,2,3.8,3.8,0,0,1-.2-1.3c0-2.77,2.81-5,6.24-5Z"/><path d="M392.43,67.12a6.36,6.36,0,0,1,5.66,3.07c-.69-2.15-3.08-3.74-5.95-3.77-3.42,0-6.22,2.19-6.24,5a4.21,4.21,0,0,0,.5,2,3.8,3.8,0,0,1-.2-1.3c0-2.77,2.81-5,6.23-5"/><path class="cls-87" d="M401.29,104.18c-.57.54-2.46-.51-4.24-2.36s-2.76-3.78-2.19-4.33,2.46.51,4.24,2.36,2.76,3.78,2.19,4.33Z"/><path class="cls-87" d="M394.5,103.45c-.57.55-2.47-.51-4.24-2.36s-2.76-3.78-2.2-4.33,2.47.52,4.24,2.36,2.76,3.79,2.2,4.33Z"/><path class="cls-87" d="M388.24,103.25c-.56.55-2.46-.51-4.24-2.35s-2.75-3.79-2.19-4.33,2.46.51,4.24,2.36,2.76,3.78,2.19,4.32Z"/><path d="M397.89,101.82c-1.78-1.85-2.76-3.78-2.19-4.33a.18.18,0,0,1,.07,0c-.41-.13-.73-.12-.91,0-.57.55.41,2.48,2.19,4.33s3.53,2.82,4.17,2.41a9.45,9.45,0,0,1-3.33-2.41Z"/><path d="M391.1,101.09c-1.78-1.84-2.76-3.78-2.2-4.33l.07-.05a.93.93,0,0,0-.91.05c-.56.55.42,2.49,2.2,4.33s3.52,2.82,4.16,2.42a9.53,9.53,0,0,1-3.32-2.42Z"/><path d="M384.84,100.9c-1.77-1.85-2.75-3.79-2.19-4.33l.07-.06c-.41-.13-.73-.12-.91.06-.56.54.42,2.48,2.19,4.33s3.53,2.82,4.17,2.41a9.45,9.45,0,0,1-3.33-2.41Z"/><path class="cls-87" d="M436.73,100.56c-2.38,2.65-5.23,4-6.38,3s-.14-4,2.23-6.67,5.24-4,6.38-3,.15,4-2.23,6.67Z"/><path d="M439,93.89a1.47,1.47,0,0,0-.4-.24c.71,1.24-.31,3.93-2.48,6.36s-4.66,3.69-6,3.19a1.48,1.48,0,0,0,.25.31c1.15,1,4-.3,6.38-3s3.38-5.64,2.23-6.67Z"/><path class="cls-88" d="M445.73,60.11l-.85-.57.85.57h0m-.85-.57h0"/><g class="cls-89"><rect class="cls-90" x="373.75" y="38.44" width="1" height="30.72"/><rect class="cls-91" x="374.75" y="38.44" width="1.66" height="30.72"/><rect class="cls-92" x="376.4" y="38.44" width="5.64" height="30.72"/><rect class="cls-93" x="382.04" y="38.44" width="1" height="30.72"/><rect class="cls-94" x="383.04" y="38.44" width="4.98" height="30.72"/><rect class="cls-95" x="388.01" y="38.44" width="0.66" height="30.72"/><rect class="cls-96" x="388.68" y="38.44" width="1" height="30.72"/><rect class="cls-97" x="389.67" y="38.44" width="4.98" height="30.72"/><rect class="cls-98" x="394.65" y="38.44" width="0.33" height="30.72"/><rect class="cls-99" x="394.98" y="38.44" width="1" height="30.72"/><rect class="cls-100" x="395.98" y="38.44" width="5.31" height="30.72"/><rect class="cls-101" x="401.28" y="38.44" width="1" height="30.72"/><rect class="cls-11" x="402.28" y="38.44" width="0.66" height="30.72"/><rect class="cls-13" x="402.94" y="38.44" width="1" height="30.72"/><rect class="cls-15" x="403.94" y="38.44" width="0.66" height="30.72"/><rect class="cls-18" x="404.6" y="38.44" width="1" height="30.72"/><rect class="cls-102" x="405.59" y="38.44" width="1" height="30.72"/><rect class="cls-103" x="406.59" y="38.44" width="0.66" height="30.72"/><rect class="cls-20" x="407.25" y="38.44" width="1" height="30.72"/><rect class="cls-21" x="408.25" y="38.44" width="0.66" height="30.72"/><rect class="cls-22" x="408.91" y="38.44" width="1" height="30.72"/><rect class="cls-104" x="409.91" y="38.44" width="0.66" height="30.72"/><rect class="cls-105" x="410.57" y="38.44" width="1" height="30.72"/><rect class="cls-25" x="411.57" y="38.44" width="0.66" height="30.72"/><rect class="cls-106" x="412.23" y="38.44" width="1" height="30.72"/><rect class="cls-107" x="413.22" y="38.44" width="0.66" height="30.72"/><rect class="cls-27" x="413.89" y="38.44" width="1" height="30.72"/><rect class="cls-28" x="414.88" y="38.44" width="0.66" height="30.72"/><rect class="cls-108" x="415.55" y="38.44" width="1" height="30.72"/><rect class="cls-109" x="416.54" y="38.44" width="0.66" height="30.72"/><rect class="cls-31" x="417.2" y="38.44" width="1" height="30.72"/><rect class="cls-32" x="418.2" y="38.44" width="1.66" height="30.72"/><rect class="cls-33" x="419.86" y="38.44" width="1" height="30.72"/><rect class="cls-110" x="420.85" y="38.44" width="0.66" height="30.72"/><rect class="cls-34" x="421.52" y="38.44" width="1" height="30.72"/><rect class="cls-111" x="422.51" y="38.44" width="0.66" height="30.72"/><rect class="cls-35" x="423.17" y="38.44" width="1" height="30.72"/><rect class="cls-36" x="424.17" y="38.44" width="0.66" height="30.72"/><rect class="cls-112" x="424.83" y="38.44" width="1" height="30.72"/><rect class="cls-37" x="425.83" y="38.44" width="0.66" height="30.72"/><rect class="cls-38" x="426.49" y="38.44" width="1" height="30.72"/><rect class="cls-38" x="427.49" y="38.44" width="0.66" height="30.72"/><rect class="cls-39" x="428.15" y="38.44" width="1" height="30.72"/><rect class="cls-39" x="429.15" y="38.44" width="0.66" height="30.72"/><rect class="cls-40" x="429.81" y="38.44" width="1" height="30.72"/><rect class="cls-40" x="430.8" y="38.44" width="1" height="30.72"/><rect class="cls-41" x="431.8" y="38.44" width="1.66" height="30.72"/><rect class="cls-42" x="433.46" y="38.44" width="0.66" height="30.72"/><rect class="cls-43" x="434.12" y="38.44" width="1.66" height="30.72"/><rect class="cls-113" x="435.78" y="38.44" width="1" height="30.72"/><rect class="cls-44" x="436.77" y="38.44" width="1.66" height="30.72"/><rect class="cls-114" x="438.43" y="38.44" width="0.66" height="30.72"/><rect class="cls-45" x="439.1" y="38.44" width="1" height="30.72"/><rect class="cls-115" x="440.09" y="38.44" width="0.66" height="30.72"/><rect class="cls-46" x="440.75" y="38.44" width="3.65" height="30.72"/><rect class="cls-116" x="444.4" y="38.44" width="0.66" height="30.72"/><rect class="cls-117" x="445.07" y="38.44" width="0.66" height="30.72"/></g><g class="cls-118"><rect class="cls-74" x="377.04" y="41.46" width="7.64" height="30.38"/><rect class="cls-75" x="384.68" y="41.46" width="1.05" height="30.38"/><rect class="cls-76" x="385.74" y="41.46" width="12.92" height="30.38"/><rect class="cls-78" x="398.65" y="41.46" width="10.54" height="30.38"/><rect class="cls-79" x="409.2" y="41.46" width="4.48" height="30.38"/><rect class="cls-80" x="413.68" y="41.46" width="7.38" height="30.38"/><rect class="cls-81" x="421.06" y="41.46" width="9.75" height="30.38"/><rect class="cls-82" x="430.81" y="41.46" width="1.05" height="30.38"/><rect class="cls-83" x="431.87" y="41.46" width="10.54" height="30.38"/></g><path class="cls-119" d="M422.57,69.14a4.36,4.36,0,0,1-.95-2.56,4.17,4.17,0,0,0,.5,1.86,3.8,3.8,0,0,1-.2-1.3c0-2.75,2.78-5,6.17-5h.06a6.37,6.37,0,0,1,5.66,3.06h0a5.79,5.79,0,0,0-4.38-3.59,5.63,5.63,0,0,1,4.48,3.95,92.49,92.49,0,0,1-11.34,3.54m-.95-2.56h0m0,0h0m0,0h0m0,0h0m0,0h0m0,0h0m0,0h0m0,0h0m0,0h0m0,0h0m0,0h0m0,0h0m7.81-4.8h0m0,0h0m0,0h0m0,0h0m0,0h0m0,0h0m0,0h0m0,0h0m0,0h0m0,0h0m0,0h0m0,0h0m0,0h0m0,0h0m0,0h0m0,0h0m0,0h0m-1-.11h0m0,0h0m0,0h0m0,0h0m0,0h0m0,0h0m0,0h0m0,0h0m0,0h0m0,0h0m0,0h0m0,0h0m0,0h0m0,0h0m0,0h0m0,0h0m0,0h0m0,0h0m0,0h0m-.06,0h0"/><path class="cls-119" d="M403.91,71.76a4.16,4.16,0,0,1-.63-2.1,4.33,4.33,0,0,0,.49,1.87,4.05,4.05,0,0,1-.19-1.3c0-2.75,2.78-5,6.17-5h.06a6.4,6.4,0,0,1,5.66,3.07h0c-.68-2.14-3.07-3.73-5.92-3.77,3.41.05,6.14,2.31,6.12,5.07a3.73,3.73,0,0,1-.12.94,96.88,96.88,0,0,1-11.64,1.18m-.63-2.1h0m0,0h0m0,0h0m0,0h0m0,0h0m0,0h0m0,0h0m0,0h0m0,0h0m0,0h0m0,0h0m6.27-5h0m0,0h0m0,0h0m-.06,0h0"/><path class="cls-119" d="M410.27,59.74h-.06c-3.39,0-6.12-2.25-6.15-5a4.12,4.12,0,0,0,.49,1.92,4.36,4.36,0,0,1-.2-1.3c0-2.75,2.78-5,6.17-5h.07a6.39,6.39,0,0,1,5.66,3.06h0a5.75,5.75,0,0,0-4.39-3.58c2.66.58,4.61,2.55,4.59,4.88,0,2.75-2.78,5-6.18,5m-6.21-5h0m0,0h0m0,0h0m0,0h0m0,0h0m0,0h0m0,0h0m0,0h0m0,0h0m0,0h0m7.8-4.79h0m0,0h0m0,0h0m0,0h0m0,0h0m0,0h0m0,0h0m0,0h0m0,0h0m0,0h0m0,0h0m0,0h0m0,0h0m0,0h0m0,0h0m-1.06-.11h0m-.05,0h0m0,0h0m0,0h0m0,0h0m0,0h0m0,0h0m0,0h0m0,0h0m0,0h0m0,0h0m0,0h0m0,0h0m0,0h0m-.09,0h0"/><path class="cls-119" d="M398.27,71.83a97.8,97.8,0,0,1-11.89-.94c.67-2.17,3.1-3.77,6-3.77h.06a6.36,6.36,0,0,1,5.66,3.07h0A5.91,5.91,0,0,0,393,66.48c3,.35,5.33,2.47,5.31,5,0,.12,0,.24,0,.35M393,66.48h0m0,0h0m0,0h0m0,0h0m0,0h0m0,0h0m0,0h0m0,0h0m0,0h0m0,0h0m0,0h0m0,0h0m0,0h0m0,0h0m0,0h0m0,0h0m0,0h0m0,0h0m0,0h0m0,0h0m0,0h0m0,0h0m0,0h0m0,0h0m0,0h0m0,0h0m0,0h0m0,0h0m0,0h0m0,0h0m0,0h0m0,0h0m0,0h0m0,0h0m0,0h0m0,0h0m0,0h0m0,0h0m0,0h0m0,0h0m0,0h0m0,0h0m0,0h0m0,0h0m0,0h0m0,0h0m0,0h0m0,0h0m0,0h0m0,0h0m0,0h0m-.06,0h0"/><path class="cls-120" d="M422.12,68.44a4.17,4.17,0,0,1-.5-1.86h0v0h0c0-2.75,2.78-5,6.17-5h.38a6.39,6.39,0,0,1,1,.11h.28a5.79,5.79,0,0,1,4.38,3.59,6.37,6.37,0,0,0-5.66-3.06h-.06c-3.39,0-6.15,2.21-6.17,5a3.8,3.8,0,0,0,.2,1.3"/><path class="cls-120" d="M403.77,71.53a4.33,4.33,0,0,1-.49-1.87h0v0h0v0h0c0-2.75,2.78-5,6.17-5h.1c2.85,0,5.24,1.63,5.92,3.77a6.4,6.4,0,0,0-5.66-3.07h-.06c-3.39,0-6.15,2.21-6.17,5a4.05,4.05,0,0,0,.19,1.3"/><path class="cls-120" d="M404.55,56.68a4.12,4.12,0,0,1-.49-1.92h0c0-2.75,2.78-5,6.16-5h.33a7.32,7.32,0,0,1,1.06.11h.25a5.75,5.75,0,0,1,4.39,3.58,6.39,6.39,0,0,0-5.66-3.06h-.07c-3.39,0-6.14,2.21-6.17,5a4.36,4.36,0,0,0,.2,1.3"/><path class="cls-120" d="M386.38,70.89l-.44-.06c.36-2.49,3-4.41,6.13-4.41H393a5.91,5.91,0,0,1,5.11,3.71,6.36,6.36,0,0,0-5.66-3.07h-.06c-2.89,0-5.32,1.6-6,3.77"/></g></g></svg>